<?xml version="1.0" encoding="utf-8"?>
<!-- Generator: Adobe Illustrator 16.0.0, SVG Export Plug-In . SVG Version: 6.00 Build 0)  -->
<!DOCTYPE svg PUBLIC "-//W3C//DTD SVG 1.1//EN" "http://www.w3.org/Graphics/SVG/1.1/DTD/svg11.dtd">
<svg version="1.1" id="Layer_1" xmlns="http://www.w3.org/2000/svg" xmlns:xlink="http://www.w3.org/1999/xlink" x="0px" y="0px"
	 width="363px" height="739.463px" viewBox="0 0 363 739.463" enable-background="new 0 0 363 739.463" xml:space="preserve">
<g id="form" transform="translate(-1.5 -5854)">
	<rect id="Section_List_Item" x="1.5" y="5926.341" fill="#DADFDE" width="363" height="1"/>
	<text transform="matrix(1 0 0 1 1.5002 5892.3896)" fill="#363636" font-family="'SweetSansPro-Regular'" font-size="14">NAME</text>
	<text transform="matrix(1 0 0 1 46.1467 5892.3896)" fill="#9A7536" font-family="'SweetSansPro-Regular'" font-size="14">*</text>
	<text transform="matrix(1 0 0 1 1.5002 5972.3896)" fill="#363636" font-family="'SweetSansPro-Regular'" font-size="14">EMAIL</text>
	<text transform="matrix(1 0 0 1 48.1282 5972.3896)" fill="#9A7536" font-family="'SweetSansPro-Regular'" font-size="14">*</text>
	<text transform="matrix(1 0 0 1 1.5002 6059.3896)" fill="#363636" font-family="'SweetSansPro-Regular'" font-size="14">PHONE</text>
	<text transform="matrix(1 0 0 1 1.5002 6132.3896)" fill="#363636" font-family="'SweetSansPro-Regular'" font-size="14">MOVE IN DATE</text>
	<text transform="matrix(1 0 0 1 1.5002 6211.3896)" fill="#363636" font-family="'SweetSansPro-Bold'" font-size="14">INTERESTED IN</text>
	<rect id="Section_List_Item-2" x="1.5" y="6006.341" fill="#DADFDE" width="363" height="1"/>
	<rect id="Section_List_Item-3" x="1.5" y="6086.341" fill="#DADFDE" width="363" height="1"/>
	<rect id="Section_List_Item-4" x="1.5" y="6166.341" fill="#DADFDE" width="363" height="1"/>
	<g id="Rectangle_850" transform="translate(1181.5 6489)">
		<rect x="-1180" y="-243.61" fill="none" width="25" height="25"/>
		<rect x="-1179.5" y="-243.11" fill="none" stroke="#9A7536" width="24" height="24"/>
	</g>
	<g id="Rectangle_851" transform="translate(1181.5 6544)">
		<rect x="-1180" y="-243.61" fill="none" width="25" height="25"/>
		<rect x="-1179.5" y="-243.11" fill="none" stroke="#9A7536" width="24" height="24"/>
	</g>
	<g id="Rectangle_852" transform="translate(1181.5 6599)">
		<rect x="-1180" y="-243.61" fill="none" width="25" height="25"/>
		<rect x="-1179.5" y="-243.11" fill="none" stroke="#9A7536" width="24" height="24"/>
	</g>
	<g id="Rectangle_853" transform="translate(1181.5 6654)">
		<rect x="-1180" y="-243.61" fill="none" width="25" height="25"/>
		<rect x="-1179.5" y="-243.11" fill="none" stroke="#9A7536" width="24" height="24"/>
	</g>
	<text transform="matrix(1 0 0 1 51.5002 6263.3408)" fill="#262626" font-family="'SweetSansPro-Regular'" font-size="16">STUDIO</text>
	<text transform="matrix(1 0 0 1 51.5002 6316.29)" fill="#262626" font-family="'SweetSansPro-Regular'" font-size="16">1-BEDROOM</text>
	<text transform="matrix(1 0 0 1 51.5002 6375.3408)" fill="#262626" font-family="'SweetSansPro-Regular'" font-size="16">2-BEDROOM</text>
	<text transform="matrix(1 0 0 1 51.5002 6428.29)" fill="#262626" font-family="'SweetSansPro-Regular'" font-size="16">3-BEDROOM</text>
	<g id="Group_3583" transform="translate(846 5917.44)">
		<g id="Group_3492">
			<g id="div.bb-line-wide" transform="translate(335.5 823.25)">
				<rect x="-1180" y="-243.61" fill="none" width="251.328" height="65.5"/>
				<rect x="-1179.5" y="-243.11" fill="none" stroke="#9A7536" width="250.328" height="64.5"/>
			</g>
		</g>
		<g id="Group_3491">
			<g id="div.bb-line-tall" transform="translate(340.5 818.25)">
				<rect x="-1180" y="-243.61" fill="none" width="241.328" height="75.5"/>
				<rect x="-1179.5" y="-243.11" fill="none" stroke="#9A7536" width="240.328" height="74.5"/>
			</g>
			
				<text transform="matrix(1 0 0 1 -782.9666 618.3911)" fill="#363636" font-family="'SweetSansPro-Regular'" font-size="14" letter-spacing="2">CONTACT US</text>
		</g>
	</g>
</g>
</svg>
