<svg id="logo-cyan" xmlns="http://www.w3.org/2000/svg" xmlns:xlink="http://www.w3.org/1999/xlink" width="295.921" height="43.517" viewBox="0 0 295.921 43.517">
  <defs>
    <clipPath id="clip-path">
      <rect id="Rectangle_1" data-name="Rectangle 1" width="295.921" height="43.517" fill="#bacdce"/>
    </clipPath>
  </defs>
  <g id="Group_1" data-name="Group 1" transform="translate(0 0)" clip-path="url(#clip-path)">
    <path id="Path_1" data-name="Path 1" d="M187.489,5.09c-4-3.33-9.446-5.09-15.753-5.09-6.332,0-11.787,1.76-15.778,5.09-4.54,3.788-6.94,9.528-6.94,16.6,0,7.8,2.786,13.706,8.281,17.55a26.451,26.451,0,0,0,28.848,0c5.512-3.848,8.306-9.753,8.306-17.55,0-7.064-2.408-12.8-6.965-16.6M171.736,2.374c12.3,0,16.685,9.977,16.685,19.314,0,7.237-2.168,19.379-16.685,19.379-3.087,0-7.495-.616-10.962-3.549-3.8-3.216-5.728-8.542-5.728-15.83,0-14.24,8.621-19.314,16.69-19.314" transform="translate(-97.335 0)" fill="#bacdce"/>
    <path id="Path_2" data-name="Path 2" d="M328.222,2.21h-2.8l-10,16.715-9.8-16.715h-6.885l13.141,22.53L300.456,43.8h2.862L313.3,27.147,323.1,43.8h6.888l-13.2-22.53Z" transform="translate(-195.128 -1.443)" fill="#bacdce"/>
    <path id="Path_3" data-name="Path 3" d="M747.267,2.2l-9.709,31.776L724.838,2.638h-1.163L721.188,8.83l-10.3,25.289L701.1,2.189l-6.151.086,12.976,42.343h1.348L722.333,12.3l13.124,32.319H736.8L749.845,2.2Z" transform="translate(-453.925 -1.43)" fill="#bacdce"/>
    <path id="Path_4" data-name="Path 4" d="M445.551,21.485c4.842-1.946,7.38-5.367,7.38-10.006,0-8.365-9.478-9.268-13.553-9.268H426.532V43.8h11.69a25.413,25.413,0,0,0,8.621-1.536c4.906-1.92,7.5-5.48,7.5-10.3,0-5.366-3.1-9.022-8.791-10.488M435.283,20.8h-2.859V4.584h4.515c6.67,0,9.777,2.415,9.777,7.6,0,3.931-1.983,8.615-11.433,8.615m-2.859,2.369h4.515c7.629,0,11.183,3.02,11.183,9.5,0,5.974-4.079,8.756-12.838,8.756h-2.859Z" transform="translate(-278.601 -1.444)" fill="#bacdce"/>
    <path id="Path_5" data-name="Path 5" d="M576.755,5.09C572.756,1.76,567.309,0,561,0c-6.332,0-11.787,1.76-15.778,5.09-4.54,3.788-6.94,9.528-6.94,16.6,0,7.8,2.786,13.706,8.281,17.55a26.451,26.451,0,0,0,28.848,0c5.512-3.848,8.307-9.753,8.307-17.55,0-7.064-2.408-12.8-6.965-16.6M561,2.374c12.305,0,16.69,9.977,16.69,19.314,0,7.237-2.168,19.379-16.69,19.379-3.087,0-7.495-.616-10.962-3.549-3.8-3.216-5.728-8.542-5.728-15.83,0-14.24,8.621-19.314,16.689-19.314" transform="translate(-351.595 0)" fill="#bacdce"/>
    <path id="Path_6" data-name="Path 6" d="M0,45.047H3.438V57.368H5.032V45.047H8.451V43.594H0Z" transform="translate(0 -28.474)" fill="#bacdce"/>
    <path id="Path_7" data-name="Path 7" d="M49.463,49.682H43.349V43.649H41.76V57.4h1.589V51.135h6.113V57.4h1.589V43.649H49.463Z" transform="translate(-27.276 -28.51)" fill="#bacdce"/>
    <path id="Path_8" data-name="Path 8" d="M90.087,57.368h7.35V55.99H91.658V51.062h5.7V49.684h-5.7v-4.7h5.779V43.594h-7.35Z" transform="translate(-58.843 -28.475)" fill="#bacdce"/>
  </g>
</svg>
