<svg xmlns="http://www.w3.org/2000/svg" width="94.66" height="36.275" viewBox="0 0 94.66 36.275">
  <g id="Group_3352" data-name="Group 3352" transform="translate(-1019.75 -229.697)">
    <path id="Path_218" data-name="Path 218" d="M122.555,236v-5.11H31.28v33.062h5.293v3.212H125.94V236h-3.4Zm-89.367-3.212h87.469v29.268H33.177V232.787h0Z" transform="translate(988.47 -1.193)" fill="#f4f1e9"/>
    <path id="Path_219" data-name="Path 219" d="M63.29,242.89v5.5a2.172,2.172,0,1,1-4.312,0v-5.5H57.469l-1.089,4.679v1.25c0,3.062,1.746,4.344,3.816,4.344a3.457,3.457,0,0,0,3.083-1.574v1.38h2.6V242.89h-2.6Z" transform="translate(990.428 -0.257)" fill="#f4f1e9"/>
    <path id="Path_220" data-name="Path 220" d="M67.21,242.9h2.6v1.358h.054a3.631,3.631,0,0,1,3.212-1.552,5.244,5.244,0,0,1,0,10.457,3.631,3.631,0,0,1-3.212-1.552h-.054v5.034h-2.6V242.893h0Zm5.347,7.945a2.912,2.912,0,1,0-2.814-2.911A2.753,2.753,0,0,0,72.557,250.849Z" transform="translate(991.273 -0.271)" fill="#f4f1e9"/>
    <path id="Path_221" data-name="Path 221" d="M78.71,242.9h2.6v2.62a3.186,3.186,0,0,1,3.159-2.814,2.98,2.98,0,0,1,.679.075v2.479a3.317,3.317,0,0,0-.658-.054,3.076,3.076,0,0,0-3.18,3.374v4.4h-2.6V242.9Z" transform="translate(992.17 -0.271)" fill="#f4f1e9"/>
    <path id="Path_222" data-name="Path 222" d="M86.22,239.47h2.6v2.285h-2.6Zm0,3.687h2.6v10.079h-2.6Z" transform="translate(992.756 -0.523)" fill="#f4f1e9"/>
    <path id="Path_223" data-name="Path 223" d="M90.641,242.9h2.6v1.38a3.457,3.457,0,0,1,3.083-1.574c2.07,0,3.816,1.283,3.816,4.344v5.929h-2.6v-5.5a2.172,2.172,0,1,0-4.312,0v5.5h-2.6V242.9Z" transform="translate(993.1 -0.271)" fill="#f4f1e9"/>
    <path id="Path_224" data-name="Path 224" d="M102.174,250.364v-5.218H100.74v-2.07h1.434V240.5h2.62v2.576h2.07v2.07h-2.07v4.786c0,.517.291,1.024,1.143,1.024a3.605,3.605,0,0,0,.949-.151V252.8a2.852,2.852,0,0,1-1.768.464,2.632,2.632,0,0,1-2.943-2.911h0Z" transform="translate(993.889 -0.443)" fill="#f4f1e9"/>
    <path id="Path_225" data-name="Path 225" d="M56.69,239.47l-3.212,13.755h-2.6l3.212-13.755Z" transform="translate(989.999 -0.523)" fill="#f4f1e9"/>
    <path id="Path_226" data-name="Path 226" d="M51.02,247.189a4.8,4.8,0,0,0-4.776-4.237,3.631,3.631,0,0,0-3.212,1.552h-.054V239.47h-2.6v13.755h2.6v-1.358h.054a3.631,3.631,0,0,0,3.212,1.552,4.781,4.781,0,0,0,3.73-1.779,5.392,5.392,0,0,0,1.11-3.45,5.918,5.918,0,0,0-.075-1h0Zm-5.293,3.9a2.912,2.912,0,1,1,2.814-2.911A2.74,2.74,0,0,1,45.727,251.091Z" transform="translate(989.18 -0.523)" fill="#f4f1e9"/>
  </g>
</svg>
