<svg id="logo" xmlns="http://www.w3.org/2000/svg" xmlns:xlink="http://www.w3.org/1999/xlink" width="201.629" height="29.651" viewBox="0 0 201.629 29.651">
  <defs>
    <clipPath id="clip-path">
      <rect id="Rectangle_1" data-name="Rectangle 1" width="201.629" height="29.651" fill="#1f2a36"/>
    </clipPath>
  </defs>
  <g id="Group_1" data-name="Group 1" transform="translate(0 0)" clip-path="url(#clip-path)">
    <path id="Path_1" data-name="Path 1" d="M175.231,3.468a18.37,18.37,0,0,0-21.484,0c-3.093,2.581-4.728,6.492-4.728,11.309,0,5.316,1.9,9.339,5.643,11.958a18.023,18.023,0,0,0,19.656,0c3.755-2.622,5.66-6.645,5.66-11.958,0-4.813-1.641-8.724-4.745-11.309M164.5,1.618c8.382,0,11.368,6.8,11.368,13.16,0,4.931-1.477,13.2-11.368,13.2a11.546,11.546,0,0,1-7.469-2.418c-2.59-2.192-3.9-5.82-3.9-10.786,0-9.7,5.874-13.16,11.372-13.16" transform="translate(-113.803 0)" fill="#1f2a36"/>
    <path id="Path_2" data-name="Path 2" d="M318.827,2.21h-1.906L310.108,13.6,303.428,2.21h-4.691l8.954,15.351L299.909,30.55h1.95l6.8-11.349,6.677,11.349h4.693l-9-15.351Z" transform="translate(-228.142 -1.688)" fill="#1f2a36"/>
    <path id="Path_3" data-name="Path 3" d="M730.6,2.194l-6.616,21.651-8.667-21.35h-.792l-1.695,4.219-7.016,17.231L699.139,2.189l-4.191.058L703.79,31.1h.918l8.9-22.021L722.549,31.1h.917l8.887-28.9Z" transform="translate(-530.725 -1.672)" fill="#1f2a36"/>
    <path id="Path_4" data-name="Path 4" d="M439.491,15.343c3.3-1.326,5.029-3.657,5.029-6.818,0-5.7-6.458-6.315-9.234-6.315h-8.753V30.551H434.5a17.316,17.316,0,0,0,5.874-1.047c3.343-1.308,5.11-3.734,5.11-7.015,0-3.656-2.11-6.147-5.99-7.146m-7-.467h-1.948V3.828h3.076c4.545,0,6.662,1.645,6.662,5.178,0,2.678-1.351,5.87-7.79,5.87m-1.948,1.614h3.076c5.2,0,7.62,2.058,7.62,6.476,0,4.07-2.779,5.966-8.747,5.966h-1.948Z" transform="translate(-325.738 -1.688)" fill="#1f2a36"/>
    <path id="Path_5" data-name="Path 5" d="M564.5,3.468a18.37,18.37,0,0,0-21.484,0c-3.094,2.581-4.729,6.492-4.729,11.309,0,5.316,1.9,9.339,5.643,11.958a18.023,18.023,0,0,0,19.656,0c3.755-2.622,5.66-6.645,5.66-11.958,0-4.813-1.641-8.724-4.746-11.309m-10.734-1.85c8.384,0,11.372,6.8,11.372,13.16,0,4.931-1.477,13.2-11.372,13.2a11.546,11.546,0,0,1-7.469-2.418c-2.59-2.192-3.9-5.82-3.9-10.786,0-9.7,5.874-13.16,11.371-13.16" transform="translate(-411.081 0)" fill="#1f2a36"/>
    <path id="Path_6" data-name="Path 6" d="M0,44.584H2.342v8.395H3.428V44.584h2.33v-.99H0Z" transform="translate(0 -33.292)" fill="#1f2a36"/>
    <path id="Path_7" data-name="Path 7" d="M47.008,47.76H42.843V43.649H41.76v9.372h1.083V48.75h4.165v4.271h1.083V43.649H47.008Z" transform="translate(-31.891 -33.334)" fill="#1f2a36"/>
    <path id="Path_8" data-name="Path 8" d="M90.088,52.979H95.1V52.04H91.158V48.682h3.884v-.939H91.158v-3.2H95.1v-.948H90.088Z" transform="translate(-68.799 -33.293)" fill="#1f2a36"/>
  </g>
</svg>
