<svg xmlns="http://www.w3.org/2000/svg" xmlns:xlink="http://www.w3.org/1999/xlink" width="837.101" height="123.101" viewBox="0 0 837.101 123.101">
  <defs>
    <clipPath id="clip-path">
      <rect id="Rectangle_1" data-name="Rectangle 1" width="837.101" height="123.101" fill="#ecede9"/>
    </clipPath>
  </defs>
  <g id="watermark" opacity="0.621">
    <g id="Group_1" data-name="Group 1" transform="translate(0 0)" clip-path="url(#clip-path)">
      <path id="Path_1" data-name="Path 1" d="M257.845,14.4C246.534,4.979,231.125,0,213.282,0c-17.911,0-33.344,4.979-44.634,14.4-12.842,10.715-19.631,26.952-19.631,46.952,0,22.069,7.882,38.772,23.427,49.645,15.62,10.924,33.762,12.1,40.838,12.1,7.045,0,25.12-1.179,40.766-12.1,15.592-10.886,23.5-27.589,23.5-49.645,0-19.984-6.812-36.22-19.7-46.953M213.282,6.717c34.8,0,47.2,28.223,47.2,54.635,0,20.473-6.132,54.821-47.2,54.821-8.733,0-21.2-1.742-31.008-10.04-10.752-9.1-16.2-24.164-16.2-44.78,0-40.283,24.388-54.635,47.212-54.635" transform="translate(-2.818 0)" fill="#ecede9"/>
      <path id="Path_2" data-name="Path 2" d="M382.143,2.21H374.23L345.947,49.494,318.213,2.21H298.737l37.174,63.733L303.6,119.87h8.1l28.246-47.119,27.72,47.119h19.484L349.792,56.137Z" transform="translate(-5.648 -0.042)" fill="#ecede9"/>
      <path id="Path_3" data-name="Path 3" d="M842.947,2.209,815.481,92.1,779.5,3.459H776.21l-7.037,17.515L740.045,92.511l-27.7-90.322-17.4.242,36.708,119.78h3.812l36.944-91.423,37.125,91.423h3.808l36.9-120Z" transform="translate(-13.14 -0.041)" fill="#ecede9"/>
      <path id="Path_4" data-name="Path 4" d="M480.333,56.734c13.7-5.5,20.878-15.182,20.878-28.306,0-23.664-26.812-26.219-38.338-26.219H426.532V119.871H459.6c3.117,0,14.086-.314,24.387-4.345,13.878-5.432,21.214-15.5,21.214-29.124,0-15.179-8.76-25.521-24.869-29.668M451.286,54.8H443.2V8.927h12.771c18.87,0,27.658,6.831,27.658,21.5,0,11.119-5.611,24.371-32.341,24.371M443.2,61.5h12.771c21.582,0,31.634,8.543,31.634,26.886,0,16.9-11.54,24.77-36.317,24.77H443.2Z" transform="translate(-8.065 -0.042)" fill="#ecede9"/>
      <path id="Path_5" data-name="Path 5" d="M647.111,14.4C635.8,4.979,620.391,0,602.549,0,584.638,0,569.2,4.979,557.916,14.4c-12.843,10.715-19.632,26.952-19.632,46.952,0,22.069,7.882,38.772,23.427,49.645,15.62,10.924,33.762,12.1,40.838,12.1,7.045,0,25.12-1.179,40.766-12.1,15.592-10.886,23.5-27.589,23.5-49.645,0-19.984-6.813-36.22-19.7-46.953M602.549,6.717c34.809,0,47.212,28.223,47.212,54.635,0,20.473-6.134,54.821-47.212,54.821-8.733,0-21.2-1.742-31.008-10.04-10.751-9.1-16.2-24.164-16.2-44.78,0-40.283,24.387-54.635,47.211-54.635" transform="translate(-10.178 0)" fill="#ecede9"/>
      <path id="Path_6" data-name="Path 6" d="M0,47.7H9.725V82.558h4.509V47.7h9.672V43.594H0Z" transform="translate(0 -0.824)" fill="#ecede9"/>
      <path id="Path_7" data-name="Path 7" d="M63.55,60.716H46.256V43.649h-4.5v38.91h4.5V64.827H63.55V82.559h4.5V43.649h-4.5Z" transform="translate(-0.79 -0.825)" fill="#ecede9"/>
      <path id="Path_8" data-name="Path 8" d="M90.087,82.558H110.88v-3.9H94.531V64.718h16.123v-3.9H94.531V47.532H110.88V43.594H90.087Z" transform="translate(-1.703 -0.824)" fill="#ecede9"/>
    </g>
  </g>
</svg>
